/* XPM */
static char * P:\Programming\CPP\DEMUSE\ide\res\icon\autocomplete_function_xpm[] = {
"16 16 60 1",
" 	c None",
".	c #7AD278",
"+	c #5EC85B",
"@	c #54C451",
"#	c #4FC34C",
"$	c #55C552",
"%	c #6ECE6C",
"&	c #8DD88B",
"*	c #57C654",
"=	c #3FB53C",
"-	c #3BA938",
";	c #39A336",
">	c #379D34",
",	c #359932",
"'	c #40B83D",
")	c #84D582",
"!	c #8FD98C",
"~	c #3FB33C",
"{	c #3EB23B",
"]	c #3DAF3A",
"^	c #39A537",
"/	c #349431",
"(	c #318D2F",
"_	c #3BA838",
":	c #5BC758",
"<	c #40B73D",
"[	c #41BA3E",
"}	c #45C041",
"|	c #000000",
"1	c #2E852C",
"2	c #7ED37C",
"3	c #41BB3E",
"4	c #48C144",
"5	c #51C34E",
"6	c #43BF40",
"7	c #369A33",
"8	c #329030",
"9	c #2D822B",
"0	c #339330",
"a	c #61C95E",
"b	c #4BC248",
"c	c #3EB13B",
"d	c #4EC34B",
"e	c #5AC757",
"f	c #3CAB38",
"g	c #4CC249",
"h	c #2D812B",
"i	c #2C7F2A",
"j	c #42BE3F",
"k	c #58C655",
"l	c #38A035",
"m	c #349631",
"n	c #308A2E",
"o	c #38A236",
"p	c #379F35",
"q	c #73CF70",
"r	c #3AA637",
"s	c #2F872D",
"t	c #328E2F",
"u	c #3CAC39",
"                ",
"     .+@#$%     ",
"   &*=-;>,>')   ",
"  !#~~{]^>/(_)  ",
"  :<[}|||||(1<  ",
" 23'45|6~_7890% ",
" a][b5|6c_7899d ",
" ef=}g||||78hij ",
" k^]<3|~flmniij ",
" eo^ff|~pl81i9d ",
" qr7p;|p,8sii0% ",
"  6m/m//tsii1<  ",
"  )u(nns9ii1_)  ",
"   )<09ii90<)   ",
"     %djjd%     ",
"                "};
