/* XPM */
static char * P:\Programming\CPP\DEMUSE\ide\res\icon\autocomplete_variable_xpm[] = {
"16 16 103 2",
"  	c None",
". 	c #85BFE4",
"+ 	c #6FB1DE",
"@ 	c #559FD7",
"# 	c #4D99D4",
"$ 	c #67AADC",
"% 	c #80BBE2",
"& 	c #83BDE4",
"* 	c #7BB7E0",
"= 	c #84BEE4",
"- 	c #86C0E4",
"; 	c #71B3DF",
"> 	c #66AADB",
", 	c #58A2D8",
"' 	c #4793D2",
") 	c #529CD6",
"! 	c #6AADDC",
"~ 	c #80BBE3",
"{ 	c #4E98D4",
"] 	c #4B95D3",
"^ 	c #4F9BD5",
"/ 	c #3189CE",
"( 	c #2382CB",
"_ 	c #1D7DC9",
": 	c #1879C7",
"< 	c #1576C6",
"[ 	c #1C79C7",
"} 	c #3989CD",
"| 	c #4696D3",
"1 	c #2D89CD",
"2 	c #2B89CD",
"3 	c #2A88CD",
"4 	c #2685CC",
"5 	c #207FCA",
"6 	c #1073C4",
"7 	c #0C6EC2",
"8 	c #297FC9",
"9 	c #519DD6",
"0 	c #2F8BCE",
"a 	c #318DCF",
"b 	c #3591D1",
"c 	c #3490D0",
"d 	c #2E8BCE",
"e 	c #1D7EC9",
"f 	c #1476C6",
"g 	c #0A6EC2",
"h 	c #066AC1",
"i 	c #3888CD",
"j 	c #358DCF",
"k 	c #2F8CCF",
"l 	c #3893D2",
"m 	c #3F99D4",
"n 	c #3D97D3",
"o 	c #3590D1",
"p 	c #2180CA",
"q 	c #1778C7",
"r 	c #0C70C3",
"s 	c #0268C0",
"t 	c #1371C4",
"u 	c #2986CD",
"v 	c #308DCF",
"w 	c #3A95D2",
"x 	c #FFFFFF",
"y 	c #0D70C3",
"z 	c #0368C0",
"A 	c #0468C0",
"B 	c #539CD6",
"C 	c #2483CB",
"D 	c #2D8ACE",
"E 	c #3691D1",
"F 	c #3B96D3",
"G 	c #3A94D2",
"H 	c #338FD0",
"I 	c #2A87CD",
"J 	c #2080CA",
"K 	c #1678C6",
"L 	c #0267C0",
"M 	c #0066BF",
"N 	c #408DCF",
"O 	c #509AD4",
"P 	c #1F7FC9",
"Q 	c #2786CC",
"R 	c #318ECF",
"S 	c #1C7CC8",
"T 	c #1275C5",
"U 	c #096DC2",
"V 	c #1D7CC8",
"W 	c #056AC1",
"X 	c #237EC9",
"Y 	c #1B7BC8",
"Z 	c #1C7DC8",
"` 	c #197AC7",
" .	c #0E71C4",
"..	c #076BC1",
"+.	c #3E8ECF",
"@.	c #1374C4",
"#.	c #1173C5",
"$.	c #1274C5",
"%.	c #0C6FC3",
"&.	c #066BC1",
"*.	c #2C81CA",
"=.	c #086CC2",
"-.	c #000000",
"                                ",
"          + @ { ] # $           ",
"      & ^ / ( _ : < [ } *       ",
"    = | 1 2 3 4 5 : 6 7 8 *     ",
"    9 0 a b c d 4 e f g h i     ",
"  ; j k l m n o 2 p q r s t >   ",
"  , u v w x x x x x x y z A '   ",
"  B C D E F G H I J K r L M N   ",
"  O P Q d R v 2 C S T U M M N   ",
"  ) V P C x x x x x x W M A '   ",
"  ! X q Y _ Z ` f  ...M M t >   ",
"    +.@.#.T $.6 %.&.M M h i     ",
"    * *.7 =.=.&.s M M h 8 *     ",
"      * i t A M M A t i *       ",
"          > ' N N ' >           ",
"                                "};
